<?xml version="1.0" encoding="UTF-8" standalone="no"?>
<svg
   xmlns:dc="http://purl.org/dc/elements/1.1/"
   xmlns:cc="http://creativecommons.org/ns#"
   xmlns:rdf="http://www.w3.org/1999/02/22-rdf-syntax-ns#"
   xmlns:svg="http://www.w3.org/2000/svg"
   xmlns="http://www.w3.org/2000/svg"
   xmlns:sodipodi="http://sodipodi.sourceforge.net/DTD/sodipodi-0.dtd"
   xmlns:inkscape="http://www.inkscape.org/namespaces/inkscape"
   version="1.0"
   width="300.000000pt"
   height="115.000000pt"
   viewBox="0 0 300.000000 115.000000"
   preserveAspectRatio="xMidYMid meet"
   id="svg2"
   inkscape:version="0.48.0 r9654"
   sodipodi:docname="underconstruction.svg">
  <defs
     id="defs102" />
  <sodipodi:namedview
     pagecolor="#ffffff"
     bordercolor="#666666"
     borderopacity="1"
     objecttolerance="10"
     gridtolerance="10"
     guidetolerance="10"
     inkscape:pageopacity="0"
     inkscape:pageshadow="2"
     inkscape:window-width="1280"
     inkscape:window-height="972"
     id="namedview100"
     showgrid="false"
     inkscape:zoom="0.96166522"
     inkscape:cx="210.48782"
     inkscape:cy="28.516138"
     inkscape:window-x="-8"
     inkscape:window-y="-8"
     inkscape:window-maximized="1"
     inkscape:current-layer="svg2" />
  <metadata
     id="metadata4">
Created by potrace 1.10, written by Peter Selinger 2001-2011
<rdf:RDF>
  <cc:Work
     rdf:about="">
    <dc:format>image/svg+xml</dc:format>
    <dc:type
       rdf:resource="http://purl.org/dc/dcmitype/StillImage" />
  </cc:Work>
</rdf:RDF>
</metadata>
  <rect
     style="fill:#ffde00;fill-opacity:1;stroke:none"
     id="rect3348"
     width="362.91217"
     height="131.54266"
     x="5.1993146"
     y="6.4880953"
     transform="scale(0.8,0.8)"
     rx="0.31942919"
     ry="0.26737013" />
  <path
     style="fill:#000000;stroke:none"
     inkscape:connector-curvature="0"
     id="path8"
     d="M 4,4 C 1.25,6.75 0.85,106.9 3.55,110.8 l 1.55,2.2 143.5,0 c 97.05,0 144.15,-0.35 145.45,-1.05 1.9,-1 1.95,-2.65 1.95,-53.95 L 296,5.1 293.8,3.55 C 289.85,0.8 6.75,1.25 4,4 z m 286.8,3.55 2.2,1.55 0,48.15 c 0,43.35 -0.15,48.25 -1.65,49.9 -1.95,2.2 -279.4,2.95 -283.4,0.8 C 6.05,106.95 6,105.35 6,57.45 L 6,7.95 8.25,7.05 C 12.7,5.25 288.2,5.75 290.8,7.55 z" />
  <g
     transform="matrix(1.0212454,0,0,1,-0.18423096,0)"
     id="g3247">
    <g
       id="g3182">
      <path
         d="m 24.771573,81.75 c -1.95,2.05 -6.35,7 -9.8,11 l -6.3,7.25 5.85,-0.05 5.85,0 6.5,-7.65 c 3.6,-4.15 7.75,-9.1 9.3,-10.95 l 2.85,-3.35 -5.35,0 c -4.95,0 -5.7,0.3 -8.9,3.75 z"
         id="path84"
         inkscape:connector-curvature="0"
         style="fill:#000000;stroke:none" />
      <path
         style="fill:#000000;stroke:none"
         inkscape:connector-curvature="0"
         id="path3154"
         d="m 42.18185,81.75 c -1.95,2.05 -6.35,7 -9.8,11 l -6.3,7.25 5.85,-0.05 5.85,0 6.5,-7.65 c 3.6,-4.15 7.75,-9.1 9.3,-10.95 l 2.85,-3.35 -5.35,0 c -4.95,0 -5.7,0.3 -8.9,3.75 z" />
      <path
         d="m 59.592125,81.75 c -1.95,2.05 -6.35,7 -9.8,11 l -6.3,7.25 5.85,-0.05 5.85,0 6.5,-7.65 c 3.6,-4.15 7.75,-9.1 9.3,-10.95 l 2.85,-3.35 -5.35,0 c -4.95,0 -5.7,0.3 -8.9,3.75 z"
         id="path3156"
         inkscape:connector-curvature="0"
         style="fill:#000000;stroke:none" />
      <path
         style="fill:#000000;stroke:none"
         inkscape:connector-curvature="0"
         id="path3158"
         d="m 77.002403,81.75 c -1.95,2.05 -6.35,7 -9.8,11 l -6.3,7.25 5.85,-0.05 5.85,0 6.500002,-7.65 c 3.6,-4.15 7.75,-9.1 9.3,-10.95 l 2.85,-3.35 -5.35,0 c -4.95,0 -5.7,0.3 -8.900002,3.75 z" />
      <path
         d="m 94.412682,81.75 c -1.95,2.05 -6.35,7 -9.8,11 l -6.3,7.25 5.85,-0.05 5.85,0 6.5,-7.65 c 3.599998,-4.15 7.749998,-9.1 9.299998,-10.95 l 2.85,-3.35 -5.35,0 c -4.949998,0 -5.699998,0.3 -8.899998,3.75 z"
         id="path3160"
         inkscape:connector-curvature="0"
         style="fill:#000000;stroke:none" />
      <path
         style="fill:#000000;stroke:none"
         inkscape:connector-curvature="0"
         id="path3162"
         d="m 111.82296,81.75 c -1.95,2.05 -6.35,7 -9.8,11 l -6.3,7.25 5.85,-0.05 5.85,0 6.5,-7.65 c 3.6,-4.15 7.75,-9.1 9.3,-10.95 l 2.85,-3.35 -5.35,0 c -4.95,0 -5.7,0.3 -8.9,3.75 z" />
      <path
         d="m 146.64353,81.75 c -1.95,2.05 -6.35,7 -9.8,11 l -6.3,7.25 5.85,-0.05 5.85,0 6.50001,-7.65 c 3.6,-4.15 7.75,-9.1 9.3,-10.95 l 2.85,-3.35 -5.35,0 c -4.95,0 -5.7,0.3 -8.90001,3.75 z"
         id="path3164"
         inkscape:connector-curvature="0"
         style="fill:#000000;stroke:none" />
      <path
         style="fill:#000000;stroke:none"
         inkscape:connector-curvature="0"
         id="path3166"
         d="m 181.4641,81.75 c -1.95,2.05 -6.35,7 -9.8,11 l -6.3,7.25 5.85,-0.05 5.85,0 6.5,-7.65 c 3.6,-4.15 7.75,-9.1 9.3,-10.95 l 2.85,-3.35 -5.35,0 c -4.95,0 -5.7,0.3 -8.9,3.75 z" />
      <path
         d="m 216.28464,81.75 c -1.95,2.05 -6.35,7 -9.8,11 l -6.3,7.25 5.85,-0.05 5.85,0 6.5,-7.65 c 3.6,-4.15 7.75,-9.1 9.3,-10.95 l 2.85,-3.35 -5.35,0 c -4.95,0 -5.7,0.3 -8.9,3.75 z"
         id="path3168"
         inkscape:connector-curvature="0"
         style="fill:#000000;stroke:none" />
      <path
         style="fill:#000000;stroke:none"
         inkscape:connector-curvature="0"
         id="path3170"
         d="m 233.69492,81.75 c -1.95,2.05 -6.35,7 -9.8,11 l -6.3,7.25 5.85,-0.05 5.85,0 6.50001,-7.65 c 3.6,-4.15 7.75,-9.1 9.3,-10.95 l 2.85,-3.35 -5.35,0 c -4.95,0 -5.7,0.3 -8.90001,3.75 z" />
      <path
         d="m 251.1052,81.75 c -1.95,2.05 -6.35,7 -9.8,11 l -6.3,7.25 5.85,-0.05 5.85,0 6.5,-7.65 c 3.6,-4.15 7.75,-9.1 9.3,-10.95 l 2.85,-3.35 -5.35,0 c -4.95,0 -5.7,0.3 -8.9,3.75 z"
         id="path3172"
         inkscape:connector-curvature="0"
         style="fill:#000000;stroke:none" />
      <path
         style="fill:#000000;stroke:none"
         inkscape:connector-curvature="0"
         id="path3174"
         d="m 268.51548,81.75 c -1.95,2.05 -6.35,7 -9.8,11 l -6.3,7.25 5.85,-0.05 5.85,0 6.5,-7.65 c 3.6,-4.15 7.75,-9.1 9.3,-10.95 l 2.85,-3.35 -5.35,0 c -4.95,0 -5.7,0.3 -8.9,3.75 z" />
      <path
         d="m 129.23324,81.75 c -1.95,2.05 -6.35,7 -9.8,11 l -6.3,7.25 5.85,-0.05 5.85,0 6.50001,-7.65 c 3.6,-4.15 7.75,-9.1 9.3,-10.95 l 2.85,-3.35 -5.35,0 c -4.95,0 -5.7,0.3 -8.90001,3.75 z"
         id="path3176"
         inkscape:connector-curvature="0"
         style="fill:#000000;stroke:none" />
      <path
         style="fill:#000000;stroke:none"
         inkscape:connector-curvature="0"
         id="path3178"
         d="m 164.05382,81.75 c -1.95,2.05 -6.35,7 -9.8,11 l -6.3,7.25 5.85,-0.05 5.85,0 6.5,-7.65 c 3.6,-4.15 7.75,-9.1 9.3,-10.95 l 2.85,-3.35 -5.35,0 c -4.95,0 -5.7,0.3 -8.9,3.75 z" />
      <path
         d="m 198.87438,81.75 c -1.95,2.05 -6.35,7 -9.8,11 l -6.3,7.25 5.85,-0.05 5.85,0 6.5,-7.65 c 3.6,-4.15 7.75,-9.1 9.3,-10.95 l 2.85,-3.35 -5.35,0 c -4.95,0 -5.7,0.3 -8.9,3.75 z"
         id="path3180"
         inkscape:connector-curvature="0"
         style="fill:#000000;stroke:none" />
    </g>
    <path
       style="fill:#000000;stroke:none"
       inkscape:connector-curvature="0"
       id="path3201"
       d="m 24.771573,81.75 c -1.95,2.05 -6.35,7 -9.8,11 l -6.3,7.25 5.85,-0.05 5.85,0 6.5,-7.65 c 3.6,-4.15 7.75,-9.1 9.3,-10.95 l 2.85,-3.35 -5.35,0 c -4.95,0 -5.7,0.3 -8.9,3.75 z" />
    <path
       d="m 42.18185,81.75 c -1.95,2.05 -6.35,7 -9.8,11 l -6.3,7.25 5.85,-0.05 5.85,0 6.5,-7.65 c 3.6,-4.15 7.75,-9.1 9.3,-10.95 l 2.85,-3.35 -5.35,0 c -4.95,0 -5.7,0.3 -8.9,3.75 z"
       id="path3203"
       inkscape:connector-curvature="0"
       style="fill:#000000;stroke:none" />
    <path
       style="fill:#000000;stroke:none"
       inkscape:connector-curvature="0"
       id="path3205"
       d="m 59.592125,81.75 c -1.95,2.05 -6.35,7 -9.8,11 l -6.3,7.25 5.85,-0.05 5.85,0 6.5,-7.65 c 3.6,-4.15 7.75,-9.1 9.3,-10.95 l 2.85,-3.35 -5.35,0 c -4.95,0 -5.7,0.3 -8.9,3.75 z" />
    <path
       d="m 77.002403,81.75 c -1.95,2.05 -6.35,7 -9.8,11 l -6.3,7.25 5.85,-0.05 5.85,0 6.500002,-7.65 c 3.6,-4.15 7.75,-9.1 9.3,-10.95 l 2.85,-3.35 -5.35,0 c -4.95,0 -5.7,0.3 -8.900002,3.75 z"
       id="path3207"
       inkscape:connector-curvature="0"
       style="fill:#000000;stroke:none" />
    <path
       style="fill:#000000;stroke:none"
       inkscape:connector-curvature="0"
       id="path3209"
       d="m 94.412682,81.75 c -1.95,2.05 -6.35,7 -9.8,11 l -6.3,7.25 5.85,-0.05 5.85,0 6.5,-7.65 c 3.599998,-4.15 7.749998,-9.1 9.299998,-10.95 l 2.85,-3.35 -5.35,0 c -4.949998,0 -5.699998,0.3 -8.899998,3.75 z" />
    <path
       d="m 111.82296,81.75 c -1.95,2.05 -6.35,7 -9.8,11 l -6.3,7.25 5.85,-0.05 5.85,0 6.5,-7.65 c 3.6,-4.15 7.75,-9.1 9.3,-10.95 l 2.85,-3.35 -5.35,0 c -4.95,0 -5.7,0.3 -8.9,3.75 z"
       id="path3211"
       inkscape:connector-curvature="0"
       style="fill:#000000;stroke:none" />
    <path
       style="fill:#000000;stroke:none"
       inkscape:connector-curvature="0"
       id="path3213"
       d="m 146.64353,81.75 c -1.95,2.05 -6.35,7 -9.8,11 l -6.3,7.25 5.85,-0.05 5.85,0 6.50001,-7.65 c 3.6,-4.15 7.75,-9.1 9.3,-10.95 l 2.85,-3.35 -5.35,0 c -4.95,0 -5.7,0.3 -8.90001,3.75 z" />
    <path
       d="m 181.4641,81.75 c -1.95,2.05 -6.35,7 -9.8,11 l -6.3,7.25 5.85,-0.05 5.85,0 6.5,-7.65 c 3.6,-4.15 7.75,-9.1 9.3,-10.95 l 2.85,-3.35 -5.35,0 c -4.95,0 -5.7,0.3 -8.9,3.75 z"
       id="path3215"
       inkscape:connector-curvature="0"
       style="fill:#000000;stroke:none" />
    <path
       style="fill:#000000;stroke:none"
       inkscape:connector-curvature="0"
       id="path3217"
       d="m 216.28464,81.75 c -1.95,2.05 -6.35,7 -9.8,11 l -6.3,7.25 5.85,-0.05 5.85,0 6.5,-7.65 c 3.6,-4.15 7.75,-9.1 9.3,-10.95 l 2.85,-3.35 -5.35,0 c -4.95,0 -5.7,0.3 -8.9,3.75 z" />
    <path
       d="m 233.69492,81.75 c -1.95,2.05 -6.35,7 -9.8,11 l -6.3,7.25 5.85,-0.05 5.85,0 6.50001,-7.65 c 3.6,-4.15 7.75,-9.1 9.3,-10.95 l 2.85,-3.35 -5.35,0 c -4.95,0 -5.7,0.3 -8.90001,3.75 z"
       id="path3219"
       inkscape:connector-curvature="0"
       style="fill:#000000;stroke:none" />
    <path
       style="fill:#000000;stroke:none"
       inkscape:connector-curvature="0"
       id="path3221"
       d="m 251.1052,81.75 c -1.95,2.05 -6.35,7 -9.8,11 l -6.3,7.25 5.85,-0.05 5.85,0 6.5,-7.65 c 3.6,-4.15 7.75,-9.1 9.3,-10.95 l 2.85,-3.35 -5.35,0 c -4.95,0 -5.7,0.3 -8.9,3.75 z" />
    <path
       d="m 268.51548,81.75 c -1.95,2.05 -6.35,7 -9.8,11 l -6.3,7.25 5.85,-0.05 5.85,0 6.5,-7.65 c 3.6,-4.15 7.75,-9.1 9.3,-10.95 l 2.85,-3.35 -5.35,0 c -4.95,0 -5.7,0.3 -8.9,3.75 z"
       id="path3223"
       inkscape:connector-curvature="0"
       style="fill:#000000;stroke:none" />
    <path
       style="fill:#000000;stroke:none"
       inkscape:connector-curvature="0"
       id="path3225"
       d="m 129.23324,81.75 c -1.95,2.05 -6.35,7 -9.8,11 l -6.3,7.25 5.85,-0.05 5.85,0 6.50001,-7.65 c 3.6,-4.15 7.75,-9.1 9.3,-10.95 l 2.85,-3.35 -5.35,0 c -4.95,0 -5.7,0.3 -8.90001,3.75 z" />
    <path
       d="m 164.05382,81.75 c -1.95,2.05 -6.35,7 -9.8,11 l -6.3,7.25 5.85,-0.05 5.85,0 6.5,-7.65 c 3.6,-4.15 7.75,-9.1 9.3,-10.95 l 2.85,-3.35 -5.35,0 c -4.95,0 -5.7,0.3 -8.9,3.75 z"
       id="path3227"
       inkscape:connector-curvature="0"
       style="fill:#000000;stroke:none" />
    <path
       style="fill:#000000;stroke:none"
       inkscape:connector-curvature="0"
       id="path3229"
       d="m 198.87438,81.75 c -1.95,2.05 -6.35,7 -9.8,11 l -6.3,7.25 5.85,-0.05 5.85,0 6.5,-7.65 c 3.6,-4.15 7.75,-9.1 9.3,-10.95 l 2.85,-3.35 -5.35,0 c -4.95,0 -5.7,0.3 -8.9,3.75 z" />
  </g>
  <g
     transform="matrix(1.0212454,0,0,1,-0.18423096,-62.80772)"
     id="g3280">
    <g
       id="g3282">
      <path
         style="fill:#000000;stroke:none"
         inkscape:connector-curvature="0"
         id="path3284"
         d="m 24.771573,81.75 c -1.95,2.05 -6.35,7 -9.8,11 l -6.3,7.25 5.85,-0.05 5.85,0 6.5,-7.65 c 3.6,-4.15 7.75,-9.1 9.3,-10.95 l 2.85,-3.35 -5.35,0 c -4.95,0 -5.7,0.3 -8.9,3.75 z" />
      <path
         d="m 42.18185,81.75 c -1.95,2.05 -6.35,7 -9.8,11 l -6.3,7.25 5.85,-0.05 5.85,0 6.5,-7.65 c 3.6,-4.15 7.75,-9.1 9.3,-10.95 l 2.85,-3.35 -5.35,0 c -4.95,0 -5.7,0.3 -8.9,3.75 z"
         id="path3286"
         inkscape:connector-curvature="0"
         style="fill:#000000;stroke:none" />
      <path
         style="fill:#000000;stroke:none"
         inkscape:connector-curvature="0"
         id="path3288"
         d="m 59.592125,81.75 c -1.95,2.05 -6.35,7 -9.8,11 l -6.3,7.25 5.85,-0.05 5.85,0 6.5,-7.65 c 3.6,-4.15 7.75,-9.1 9.3,-10.95 l 2.85,-3.35 -5.35,0 c -4.95,0 -5.7,0.3 -8.9,3.75 z" />
      <path
         d="m 77.002403,81.75 c -1.95,2.05 -6.35,7 -9.8,11 l -6.3,7.25 5.85,-0.05 5.85,0 6.500002,-7.65 c 3.6,-4.15 7.75,-9.1 9.3,-10.95 l 2.85,-3.35 -5.35,0 c -4.95,0 -5.7,0.3 -8.900002,3.75 z"
         id="path3290"
         inkscape:connector-curvature="0"
         style="fill:#000000;stroke:none" />
      <path
         style="fill:#000000;stroke:none"
         inkscape:connector-curvature="0"
         id="path3292"
         d="m 94.412682,81.75 c -1.95,2.05 -6.35,7 -9.8,11 l -6.3,7.25 5.85,-0.05 5.85,0 6.5,-7.65 c 3.599998,-4.15 7.749998,-9.1 9.299998,-10.95 l 2.85,-3.35 -5.35,0 c -4.949998,0 -5.699998,0.3 -8.899998,3.75 z" />
      <path
         d="m 111.82296,81.75 c -1.95,2.05 -6.35,7 -9.8,11 l -6.3,7.25 5.85,-0.05 5.85,0 6.5,-7.65 c 3.6,-4.15 7.75,-9.1 9.3,-10.95 l 2.85,-3.35 -5.35,0 c -4.95,0 -5.7,0.3 -8.9,3.75 z"
         id="path3294"
         inkscape:connector-curvature="0"
         style="fill:#000000;stroke:none" />
      <path
         style="fill:#000000;stroke:none"
         inkscape:connector-curvature="0"
         id="path3296"
         d="m 146.64353,81.75 c -1.95,2.05 -6.35,7 -9.8,11 l -6.3,7.25 5.85,-0.05 5.85,0 6.50001,-7.65 c 3.6,-4.15 7.75,-9.1 9.3,-10.95 l 2.85,-3.35 -5.35,0 c -4.95,0 -5.7,0.3 -8.90001,3.75 z" />
      <path
         d="m 181.4641,81.75 c -1.95,2.05 -6.35,7 -9.8,11 l -6.3,7.25 5.85,-0.05 5.85,0 6.5,-7.65 c 3.6,-4.15 7.75,-9.1 9.3,-10.95 l 2.85,-3.35 -5.35,0 c -4.95,0 -5.7,0.3 -8.9,3.75 z"
         id="path3298"
         inkscape:connector-curvature="0"
         style="fill:#000000;stroke:none" />
      <path
         style="fill:#000000;stroke:none"
         inkscape:connector-curvature="0"
         id="path3300"
         d="m 216.28464,81.75 c -1.95,2.05 -6.35,7 -9.8,11 l -6.3,7.25 5.85,-0.05 5.85,0 6.5,-7.65 c 3.6,-4.15 7.75,-9.1 9.3,-10.95 l 2.85,-3.35 -5.35,0 c -4.95,0 -5.7,0.3 -8.9,3.75 z" />
      <path
         d="m 233.69492,81.75 c -1.95,2.05 -6.35,7 -9.8,11 l -6.3,7.25 5.85,-0.05 5.85,0 6.50001,-7.65 c 3.6,-4.15 7.75,-9.1 9.3,-10.95 l 2.85,-3.35 -5.35,0 c -4.95,0 -5.7,0.3 -8.90001,3.75 z"
         id="path3302"
         inkscape:connector-curvature="0"
         style="fill:#000000;stroke:none" />
      <path
         style="fill:#000000;stroke:none"
         inkscape:connector-curvature="0"
         id="path3304"
         d="m 251.1052,81.75 c -1.95,2.05 -6.35,7 -9.8,11 l -6.3,7.25 5.85,-0.05 5.85,0 6.5,-7.65 c 3.6,-4.15 7.75,-9.1 9.3,-10.95 l 2.85,-3.35 -5.35,0 c -4.95,0 -5.7,0.3 -8.9,3.75 z" />
      <path
         d="m 268.51548,81.75 c -1.95,2.05 -6.35,7 -9.8,11 l -6.3,7.25 5.85,-0.05 5.85,0 6.5,-7.65 c 3.6,-4.15 7.75,-9.1 9.3,-10.95 l 2.85,-3.35 -5.35,0 c -4.95,0 -5.7,0.3 -8.9,3.75 z"
         id="path3306"
         inkscape:connector-curvature="0"
         style="fill:#000000;stroke:none" />
      <path
         style="fill:#000000;stroke:none"
         inkscape:connector-curvature="0"
         id="path3308"
         d="m 129.23324,81.75 c -1.95,2.05 -6.35,7 -9.8,11 l -6.3,7.25 5.85,-0.05 5.85,0 6.50001,-7.65 c 3.6,-4.15 7.75,-9.1 9.3,-10.95 l 2.85,-3.35 -5.35,0 c -4.95,0 -5.7,0.3 -8.90001,3.75 z" />
      <path
         d="m 164.05382,81.75 c -1.95,2.05 -6.35,7 -9.8,11 l -6.3,7.25 5.85,-0.05 5.85,0 6.5,-7.65 c 3.6,-4.15 7.75,-9.1 9.3,-10.95 l 2.85,-3.35 -5.35,0 c -4.95,0 -5.7,0.3 -8.9,3.75 z"
         id="path3310"
         inkscape:connector-curvature="0"
         style="fill:#000000;stroke:none" />
      <path
         style="fill:#000000;stroke:none"
         inkscape:connector-curvature="0"
         id="path3312"
         d="m 198.87438,81.75 c -1.95,2.05 -6.35,7 -9.8,11 l -6.3,7.25 5.85,-0.05 5.85,0 6.5,-7.65 c 3.6,-4.15 7.75,-9.1 9.3,-10.95 l 2.85,-3.35 -5.35,0 c -4.95,0 -5.7,0.3 -8.9,3.75 z" />
    </g>
    <path
       d="m 24.771573,81.75 c -1.95,2.05 -6.35,7 -9.8,11 l -6.3,7.25 5.85,-0.05 5.85,0 6.5,-7.65 c 3.6,-4.15 7.75,-9.1 9.3,-10.95 l 2.85,-3.35 -5.35,0 c -4.95,0 -5.7,0.3 -8.9,3.75 z"
       id="path3314"
       inkscape:connector-curvature="0"
       style="fill:#000000;stroke:none" />
    <path
       style="fill:#000000;stroke:none"
       inkscape:connector-curvature="0"
       id="path3316"
       d="m 42.18185,81.75 c -1.95,2.05 -6.35,7 -9.8,11 l -6.3,7.25 5.85,-0.05 5.85,0 6.5,-7.65 c 3.6,-4.15 7.75,-9.1 9.3,-10.95 l 2.85,-3.35 -5.35,0 c -4.95,0 -5.7,0.3 -8.9,3.75 z" />
    <path
       d="m 59.592125,81.75 c -1.95,2.05 -6.35,7 -9.8,11 l -6.3,7.25 5.85,-0.05 5.85,0 6.5,-7.65 c 3.6,-4.15 7.75,-9.1 9.3,-10.95 l 2.85,-3.35 -5.35,0 c -4.95,0 -5.7,0.3 -8.9,3.75 z"
       id="path3318"
       inkscape:connector-curvature="0"
       style="fill:#000000;stroke:none" />
    <path
       style="fill:#000000;stroke:none"
       inkscape:connector-curvature="0"
       id="path3320"
       d="m 77.002403,81.75 c -1.95,2.05 -6.35,7 -9.8,11 l -6.3,7.25 5.85,-0.05 5.85,0 6.500002,-7.65 c 3.6,-4.15 7.75,-9.1 9.3,-10.95 l 2.85,-3.35 -5.35,0 c -4.95,0 -5.7,0.3 -8.900002,3.75 z" />
    <path
       d="m 94.412682,81.75 c -1.95,2.05 -6.35,7 -9.8,11 l -6.3,7.25 5.85,-0.05 5.85,0 6.5,-7.65 c 3.599998,-4.15 7.749998,-9.1 9.299998,-10.95 l 2.85,-3.35 -5.35,0 c -4.949998,0 -5.699998,0.3 -8.899998,3.75 z"
       id="path3322"
       inkscape:connector-curvature="0"
       style="fill:#000000;stroke:none" />
    <path
       style="fill:#000000;stroke:none"
       inkscape:connector-curvature="0"
       id="path3324"
       d="m 111.82296,81.75 c -1.95,2.05 -6.35,7 -9.8,11 l -6.3,7.25 5.85,-0.05 5.85,0 6.5,-7.65 c 3.6,-4.15 7.75,-9.1 9.3,-10.95 l 2.85,-3.35 -5.35,0 c -4.95,0 -5.7,0.3 -8.9,3.75 z" />
    <path
       d="m 146.64353,81.75 c -1.95,2.05 -6.35,7 -9.8,11 l -6.3,7.25 5.85,-0.05 5.85,0 6.50001,-7.65 c 3.6,-4.15 7.75,-9.1 9.3,-10.95 l 2.85,-3.35 -5.35,0 c -4.95,0 -5.7,0.3 -8.90001,3.75 z"
       id="path3326"
       inkscape:connector-curvature="0"
       style="fill:#000000;stroke:none" />
    <path
       style="fill:#000000;stroke:none"
       inkscape:connector-curvature="0"
       id="path3328"
       d="m 181.4641,81.75 c -1.95,2.05 -6.35,7 -9.8,11 l -6.3,7.25 5.85,-0.05 5.85,0 6.5,-7.65 c 3.6,-4.15 7.75,-9.1 9.3,-10.95 l 2.85,-3.35 -5.35,0 c -4.95,0 -5.7,0.3 -8.9,3.75 z" />
    <path
       d="m 216.28464,81.75 c -1.95,2.05 -6.35,7 -9.8,11 l -6.3,7.25 5.85,-0.05 5.85,0 6.5,-7.65 c 3.6,-4.15 7.75,-9.1 9.3,-10.95 l 2.85,-3.35 -5.35,0 c -4.95,0 -5.7,0.3 -8.9,3.75 z"
       id="path3330"
       inkscape:connector-curvature="0"
       style="fill:#000000;stroke:none" />
    <path
       style="fill:#000000;stroke:none"
       inkscape:connector-curvature="0"
       id="path3332"
       d="m 233.69492,81.75 c -1.95,2.05 -6.35,7 -9.8,11 l -6.3,7.25 5.85,-0.05 5.85,0 6.50001,-7.65 c 3.6,-4.15 7.75,-9.1 9.3,-10.95 l 2.85,-3.35 -5.35,0 c -4.95,0 -5.7,0.3 -8.90001,3.75 z" />
    <path
       d="m 251.1052,81.75 c -1.95,2.05 -6.35,7 -9.8,11 l -6.3,7.25 5.85,-0.05 5.85,0 6.5,-7.65 c 3.6,-4.15 7.75,-9.1 9.3,-10.95 l 2.85,-3.35 -5.35,0 c -4.95,0 -5.7,0.3 -8.9,3.75 z"
       id="path3334"
       inkscape:connector-curvature="0"
       style="fill:#000000;stroke:none" />
    <path
       style="fill:#000000;stroke:none"
       inkscape:connector-curvature="0"
       id="path3336"
       d="m 268.51548,81.75 c -1.95,2.05 -6.35,7 -9.8,11 l -6.3,7.25 5.85,-0.05 5.85,0 6.5,-7.65 c 3.6,-4.15 7.75,-9.1 9.3,-10.95 l 2.85,-3.35 -5.35,0 c -4.95,0 -5.7,0.3 -8.9,3.75 z" />
    <path
       d="m 129.23324,81.75 c -1.95,2.05 -6.35,7 -9.8,11 l -6.3,7.25 5.85,-0.05 5.85,0 6.50001,-7.65 c 3.6,-4.15 7.75,-9.1 9.3,-10.95 l 2.85,-3.35 -5.35,0 c -4.95,0 -5.7,0.3 -8.90001,3.75 z"
       id="path3338"
       inkscape:connector-curvature="0"
       style="fill:#000000;stroke:none" />
    <path
       style="fill:#000000;stroke:none"
       inkscape:connector-curvature="0"
       id="path3340"
       d="m 164.05382,81.75 c -1.95,2.05 -6.35,7 -9.8,11 l -6.3,7.25 5.85,-0.05 5.85,0 6.5,-7.65 c 3.6,-4.15 7.75,-9.1 9.3,-10.95 l 2.85,-3.35 -5.35,0 c -4.95,0 -5.7,0.3 -8.9,3.75 z" />
    <path
       d="m 198.87438,81.75 c -1.95,2.05 -6.35,7 -9.8,11 l -6.3,7.25 5.85,-0.05 5.85,0 6.5,-7.65 c 3.6,-4.15 7.75,-9.1 9.3,-10.95 l 2.85,-3.35 -5.35,0 c -4.95,0 -5.7,0.3 -8.9,3.75 z"
       id="path3342"
       inkscape:connector-curvature="0"
       style="fill:#000000;stroke:none" />
  </g>
  <path
     inkscape:connector-curvature="0"
     id="path4220"
     style="font-size:33.07216644px;font-style:normal;font-variant:normal;font-weight:normal;font-stretch:normal;text-align:start;line-height:125%;letter-spacing:0px;word-spacing:0px;writing-mode:lr-tb;text-anchor:start;fill:#000000;fill-opacity:1;stroke:none;font-family:Bernard MT Condensed;-inkscape-font-specification:'Bernard MT Condensed,'"
     d="m 11.142095,47.354838 7.226587,0 c 0.244772,2.6e-5 0.400541,0.0495 0.467309,0.148438 0.06675,0.09898 0.100126,0.403671 0.100136,0.914062 -9e-6,0.510441 -0.161341,0.848982 -0.483998,1.015625 -0.244788,0.125024 -0.408903,0.255232 -0.492343,0.390626 -0.08346,0.135439 -0.125179,0.395855 -0.125172,0.78125 l 0,17.5 c -7e-6,0.47917 0.144635,0.867191 0.43393,1.164063 0.289277,0.296878 0.656447,0.445314 1.101512,0.445311 0.411667,3e-6 0.762147,-0.166662 1.051443,-0.499999 0.289275,-0.33333 0.433919,-0.703121 0.433929,-1.109375 l 0,-17.5 c -10e-6,-0.302062 -0.03061,-0.512998 -0.0918,-0.632813 -0.0612,-0.119769 -0.214193,-0.268207 -0.458963,-0.445313 -0.378307,-0.270809 -0.567455,-0.687476 -0.567445,-1.249999 -10e-6,-0.437475 0.05284,-0.700496 0.15855,-0.789063 0.105691,-0.08852 0.258679,-0.132787 0.458964,-0.132813 l 3.604949,0 c 0.400535,2.6e-5 0.60081,0.187525 0.600824,0.562501 l 0,0.75 c -1.4e-5,0.333357 -0.02226,0.544294 -0.06675,0.632812 -0.04452,0.08856 -0.172473,0.169294 -0.38386,0.242188 -0.522954,0.166689 -0.784424,0.50523 -0.78441,1.015624 l 0,17.046875 c -1.4e-5,1.614587 -0.495137,2.893232 -1.485372,3.835939 -0.99026,0.942708 -2.36993,1.414061 -4.139016,1.414062 -1.980502,-10e-7 -3.490908,-0.5 -4.531221,-1.5 -1.040319,-0.999998 -1.560477,-2.442705 -1.560475,-4.328125 l 0,-16.468751 c -2e-6,-0.437477 -0.244781,-0.760394 -0.734341,-0.96875 -0.244781,-0.104143 -0.392206,-0.200497 -0.442275,-0.289062 -0.05007,-0.08851 -0.0751,-0.278622 -0.0751,-0.570312 0,-0.604142 0.03894,-0.98435 0.116827,-1.140625 0.07789,-0.156225 0.300411,-0.23435 0.667582,-0.234376 z" />
  <path
     inkscape:connector-curvature="0"
     id="path4222"
     style="font-size:33.07216644px;font-style:normal;font-variant:normal;font-weight:normal;font-stretch:normal;text-align:start;line-height:125%;letter-spacing:0px;word-spacing:0px;writing-mode:lr-tb;text-anchor:start;fill:#000000;fill-opacity:1;stroke:none;font-family:Bernard MT Condensed;-inkscape-font-specification:'Bernard MT Condensed,'"
     d="m 29.550699,58.276714 0,11.03125 c -4e-6,0.458336 0.278154,0.802086 0.834479,1.03125 0.467302,0.197918 0.700956,0.479168 0.700962,0.84375 -6e-6,0.760417 -0.01948,1.182292 -0.05841,1.265625 -0.03895,0.08334 -0.203062,0.125 -0.492343,0.125 l -4.439427,0 c -0.222529,0 -0.361609,-0.08073 -0.41724,-0.242188 -0.05563,-0.161457 -0.08344,-0.559895 -0.08344,-1.195312 0,-0.291665 0.150206,-0.49479 0.450619,-0.609376 0.57857,-0.23958 0.867856,-0.510413 0.867858,-0.8125 l 0,-18.46875 c -2e-6,-0.447894 -0.0445,-0.783831 -0.133517,-1.007812 -0.08902,-0.223936 -0.289287,-0.408832 -0.600825,-0.554688 -0.278161,-0.124976 -0.464527,-0.260393 -0.5591,-0.406249 -0.09458,-0.14581 -0.141862,-0.421852 -0.141861,-0.828126 -1e-6,-0.729141 0.205837,-1.093724 0.617514,-1.09375 l 4.639702,0 5.607698,12.171876 0,-8.968751 c -1.1e-5,-0.499977 -0.272607,-0.854144 -0.817789,-1.0625 -0.322676,-0.135393 -0.531295,-0.289038 -0.625859,-0.460937 -0.09459,-0.171851 -0.141872,-0.507788 -0.141861,-1.007813 -1.1e-5,-0.312474 0.03337,-0.502579 0.100136,-0.570312 0.06674,-0.06768 0.194702,-0.101537 0.38386,-0.101563 l 4.606324,0 c 0.255891,0.03127 0.383845,0.375025 0.38386,1.03125 -1.5e-5,0.385441 -0.02505,0.630232 -0.07511,0.734376 -0.05008,0.10419 -0.16413,0.192731 -0.342137,0.265625 -0.389438,0.145856 -0.634217,0.28648 -0.734341,0.421875 -0.100147,0.135439 -0.15022,0.322939 -0.150206,0.562499 l 0,22.203126 -2.837229,0 z" />
  <path
     inkscape:connector-curvature="0"
     id="path4224"
     style="font-size:33.07216644px;font-style:normal;font-variant:normal;font-weight:normal;font-stretch:normal;text-align:start;line-height:125%;letter-spacing:0px;word-spacing:0px;writing-mode:lr-tb;text-anchor:start;fill:#000000;fill-opacity:1;stroke:none;font-family:Bernard MT Condensed;-inkscape-font-specification:'Bernard MT Condensed,'"
     d="m 42.368295,69.104839 0,-18.921875 c -0.03338,-0.208311 -0.233655,-0.364561 -0.600825,-0.468751 -0.289287,-0.08331 -0.483998,-0.205706 -0.584136,-0.367187 -0.100136,-0.161435 -0.150206,-0.507789 -0.150205,-1.039062 -1e-6,-0.385393 0.07232,-0.640601 0.216965,-0.765626 0.144642,-0.124974 0.517374,-0.187474 1.118201,-0.1875 l 7.994308,0 c 2.280896,2.6e-5 4.169599,0.9844 5.666112,2.953125 1.496481,1.96877 2.244731,5.239601 2.244748,9.812501 -1.7e-5,4.166675 -0.723232,7.283859 -2.169646,9.351562 -1.446444,2.06771 -3.36018,3.101563 -5.741214,3.101563 l -8.812097,0 c -0.244782,0 -0.414459,-0.05469 -0.509033,-0.164063 -0.09458,-0.109374 -0.141862,-0.351561 -0.141861,-0.726562 -10e-7,-0.447915 0.01669,-0.729165 0.05007,-0.84375 0.03338,-0.114582 0.194711,-0.24479 0.483997,-0.390625 0.623077,-0.302081 0.934616,-0.749997 0.934617,-1.34375 z m 6.208523,-19.890625 0,21.640625 0.884548,0 c 0.623068,2e-6 1.079249,-0.242186 1.368545,-0.726563 0.289276,-0.484372 0.433918,-1.34635 0.433929,-2.585937 l 0,-15.968751 c -1.1e-5,-0.697894 -0.178032,-1.265602 -0.534067,-1.703124 -0.356054,-0.437477 -0.862304,-0.656227 -1.518751,-0.65625 z" />
  <path
     inkscape:connector-curvature="0"
     id="path4226"
     style="font-size:33.07216644px;font-style:normal;font-variant:normal;font-weight:normal;font-stretch:normal;text-align:start;line-height:125%;letter-spacing:0px;word-spacing:0px;writing-mode:lr-tb;text-anchor:start;fill:#000000;fill-opacity:1;stroke:none;font-family:Bernard MT Condensed;-inkscape-font-specification:'Bernard MT Condensed,'"
     d="m 67.235765,49.276714 0,8.921875 1.134891,0 c 0.311529,1.4e-5 0.53962,-0.06249 0.684272,-0.1875 0.144633,-0.124986 0.255897,-0.395818 0.333793,-0.8125 0.133506,-0.739568 0.241988,-1.182276 0.325446,-1.328125 0.08343,-0.145817 0.214171,-0.218733 0.392205,-0.21875 0.878973,1.7e-5 1.376878,0.03388 1.493717,0.101562 0.116815,0.06772 0.175228,0.330746 0.175241,0.789063 l 0,5.203125 c -1.3e-5,0.322927 -0.05564,0.533865 -0.166896,0.632812 -0.111276,0.09897 -0.456194,0.148448 -1.034754,0.148438 -0.378308,1e-5 -0.631433,-0.0651 -0.759375,-0.195313 -0.127965,-0.130198 -0.253137,-0.497385 -0.375516,-1.101562 -0.1224,-0.552072 -0.242009,-0.890613 -0.358826,-1.015625 -0.116837,-0.124988 -0.29764,-0.187488 -0.542411,-0.1875 l -1.301787,0 0,10.765625 0.884547,0 c 0.545183,2e-6 0.920698,-0.143227 1.126547,-0.429688 0.205827,-0.286456 0.536837,-1.111976 0.99303,-2.476562 0.189137,-0.572911 0.383849,-0.947911 0.584135,-1.125001 0.200263,-0.177077 0.550743,-0.265618 1.051443,-0.265624 0.689823,6e-6 1.034741,0.208339 1.034754,0.625 -1.3e-5,0.125005 -0.02226,0.307296 -0.06675,0.546874 l -0.617514,3.546876 c -0.111278,0.645834 -0.203069,1.033854 -0.275379,1.164063 -0.07234,0.130208 -0.297643,0.195312 -0.675928,0.195312 l -11.131948,0 c -0.278161,0 -0.456182,-0.05989 -0.534066,-0.179688 -0.07789,-0.119791 -0.116827,-0.466145 -0.116827,-1.039062 0,-0.364582 0.200274,-0.630207 0.600825,-0.796876 0.611948,-0.23958 0.917924,-0.567704 0.917926,-0.984374 l 0,-19.484375 c -0.01113,-0.197895 -0.261472,-0.395811 -0.751031,-0.593751 -0.333792,-0.135393 -0.531285,-0.265602 -0.59248,-0.390625 -0.06119,-0.124976 -0.0918,-0.427059 -0.0918,-0.90625 0,-0.406225 0.03338,-0.648412 0.100136,-0.726562 0.06675,-0.0781 0.261469,-0.117162 0.584135,-0.117188 l 10.647951,0 c 0.26702,2.6e-5 0.461733,0.04169 0.584135,0.125 0.122377,0.08336 0.216951,0.281275 0.283723,0.593751 l 0.851168,4.03125 c 0.04449,0.208353 0.06674,0.348978 0.06675,0.421875 -1.3e-5,0.28127 -0.267046,0.421894 -0.8011,0.421875 -0.600836,1.9e-5 -1.001386,-0.06509 -1.201649,-0.195313 -0.200286,-0.130188 -0.394997,-0.455709 -0.584135,-0.976562 -0.344929,-0.937479 -0.642559,-1.58852 -0.892893,-1.953125 -0.250353,-0.364561 -0.531294,-0.546852 -0.842823,-0.546875 z" />
  <path
     inkscape:connector-curvature="0"
     id="path4228"
     style="font-size:33.07216644px;font-style:normal;font-variant:normal;font-weight:normal;font-stretch:normal;text-align:start;line-height:125%;letter-spacing:0px;word-spacing:0px;writing-mode:lr-tb;text-anchor:start;fill:#000000;fill-opacity:1;stroke:none;font-family:Bernard MT Condensed;-inkscape-font-specification:'Bernard MT Condensed,'"
     d="m 81.522047,61.479839 0,7.75 c -8e-6,0.364586 0.02502,0.609377 0.0751,0.734375 0.05006,0.125002 0.191922,0.25521 0.425584,0.390625 0.300403,0.177085 0.450609,0.47396 0.450618,0.890625 -9e-6,0.604167 -0.05842,0.976563 -0.17524,1.117187 -0.116836,0.140625 -0.331018,0.210938 -0.642549,0.210938 l -7.059692,0 c -0.40055,0 -0.600825,-0.270833 -0.600824,-0.8125 -10e-7,-0.520832 0.01669,-0.856769 0.05007,-1.007813 0.03338,-0.151039 0.144643,-0.25781 0.333793,-0.320312 0.611948,-0.229164 0.917924,-0.677081 0.917926,-1.34375 l 0,-18.296876 c -2e-6,-0.677061 -0.267035,-1.088519 -0.8011,-1.234375 -0.267034,-0.08331 -0.433929,-0.166643 -0.500687,-0.249999 -0.06676,-0.08331 -0.100136,-0.328102 -0.100136,-0.734375 -10e-7,-0.812476 0.233653,-1.218725 0.700961,-1.218751 l 9.229337,0 c 1.835841,2.6e-5 3.4742,0.645859 4.915081,1.9375 1.44085,1.291689 2.161283,3.026062 2.1613,5.203125 -1.7e-5,3.093765 -1.685662,5.114597 -5.056942,6.0625 3.081994,0.635429 4.622996,2.463552 4.623014,5.484376 l 0,3.71875 c -1.8e-5,0.312502 0.127935,0.546877 0.38386,0.703125 0.300395,0.187502 0.4506,0.473959 0.450619,0.859375 -1.9e-5,0.604167 -0.03896,0.963541 -0.116828,1.078125 -0.07791,0.114583 -0.28374,0.171875 -0.617514,0.171875 l -4.472807,0 c -0.534079,0 -0.97357,-0.283854 -1.318476,-0.851563 -0.34493,-0.567707 -0.517389,-1.268227 -0.517377,-2.101562 l 0,-6.296875 c -1.2e-5,-1.229156 -0.662031,-1.84374 -1.98606,-1.84375 z m 0,-12.343751 0,10.531251 1.084823,0 c 1.101501,1.2e-5 1.652256,-1.036445 1.652268,-3.109375 l 0,-5.03125 c -1.2e-5,-0.874979 -0.175252,-1.492166 -0.525722,-1.851563 -0.350491,-0.359352 -0.898465,-0.539039 -1.643924,-0.539063 z" />
  <path
     inkscape:connector-curvature="0"
     id="path4230"
     style="font-size:33.07216644px;font-style:normal;font-variant:normal;font-weight:normal;font-stretch:normal;text-align:start;line-height:125%;letter-spacing:0px;word-spacing:0px;writing-mode:lr-tb;text-anchor:start;fill:#000000;fill-opacity:1;stroke:none;font-family:Bernard MT Condensed;-inkscape-font-specification:'Bernard MT Condensed,'"
     d="m 111.76356,46.932963 0.86786,0 c 0.20026,2.7e-5 0.35047,0.07034 0.45062,0.210938 0.10014,0.14065 0.17245,0.518254 0.21696,1.132813 l 0.38386,5.03125 c 0.0111,0.104185 0.0166,0.203144 0.0166,0.296875 -2e-5,0.364602 -0.0668,0.619809 -0.20028,0.765625 -0.13353,0.145851 -0.40055,0.218768 -0.8011,0.218749 -0.48957,1.9e-5 -0.82892,-0.119773 -1.01806,-0.359375 -0.18916,-0.239564 -0.37275,-0.807272 -0.55076,-1.703124 -0.45619,-2.270811 -1.10708,-3.406227 -1.95267,-3.40625 -0.70098,2.3e-5 -1.05146,0.817731 -1.05145,2.453124 l 0,17.578126 c -1e-5,1.166669 0.36716,1.750002 1.10151,1.75 0.93461,2e-6 1.45755,-0.973955 1.56882,-2.921875 0.0334,-0.562495 0.1502,-0.95312 0.35048,-1.171875 0.20026,-0.218744 0.61194,-0.328119 1.23503,-0.328125 0.4673,6e-6 0.79274,0.08074 0.97634,0.242187 0.18357,0.161464 0.27537,0.476568 0.27538,0.945312 -1e-5,1.489587 -0.47845,2.726565 -1.4353,3.710939 -0.95688,0.984375 -2.14741,1.476561 -3.57157,1.476562 -1.37969,-10e-7 -2.59245,-0.411458 -3.63833,-1.234375 -1.04589,-0.822915 -1.9499,-2.242184 -2.71206,-4.257813 -0.76216,-2.015617 -1.14323,-4.596344 -1.14323,-7.742188 0,-2.968734 0.31988,-5.341127 0.95965,-7.117187 0.63976,-1.77602 1.45755,-3.148415 2.45336,-4.117188 0.99582,-0.968724 2.15574,-1.453098 3.47978,-1.453125 0.80109,2.7e-5 1.49649,0.203151 2.0862,0.609375 0.22252,0.145859 0.38941,0.218775 0.50069,0.218751 0.13351,2.4e-5 0.32265,-0.145809 0.56744,-0.437501 0.2114,-0.260391 0.40611,-0.390598 0.58414,-0.390625 z" />
  <path
     inkscape:connector-curvature="0"
     id="path4232"
     style="font-size:33.07216644px;font-style:normal;font-variant:normal;font-weight:normal;font-stretch:normal;text-align:start;line-height:125%;letter-spacing:0px;word-spacing:0px;writing-mode:lr-tb;text-anchor:start;fill:#000000;fill-opacity:1;stroke:none;font-family:Bernard MT Condensed;-inkscape-font-specification:'Bernard MT Condensed,'"
     d="m 123.31275,46.932963 c 1.63557,2.7e-5 3.0514,0.513047 4.24749,1.539063 1.19608,1.026064 2.17242,2.487 2.92903,4.382813 0.75658,1.895851 1.13487,4.32814 1.13489,7.296875 -2e-5,3.562508 -0.73714,6.570318 -2.21137,9.023438 -1.47426,2.453125 -3.55211,3.679686 -6.23355,3.679687 -2.54795,-10e-7 -4.55626,-1.197915 -6.02495,-3.593751 -1.46868,-2.395827 -2.20302,-5.489573 -2.20302,-9.28125 0,-3.885399 0.75381,-7.03123 2.26144,-9.437499 1.50762,-2.406226 3.54096,-3.609349 6.10004,-3.609376 z m 1.31848,3.703126 c -1e-5,-1.302061 -0.45063,-1.953101 -1.35186,-1.953126 -0.3783,2.5e-5 -0.70097,0.161483 -0.968,0.484375 -0.26704,0.32294 -0.40055,0.718774 -0.40054,1.187501 l 0,18.859375 c -1e-5,0.635419 0.1335,1.117189 0.40054,1.445313 0.26703,0.328126 0.58413,0.492189 0.95131,0.492187 0.41167,2e-6 0.74268,-0.182291 0.99304,-0.546875 0.25032,-0.364581 0.3755,-0.77083 0.37551,-1.21875 z" />
  <path
     inkscape:connector-curvature="0"
     id="path4234"
     style="font-size:33.07216644px;font-style:normal;font-variant:normal;font-weight:normal;font-stretch:normal;text-align:start;line-height:125%;letter-spacing:0px;word-spacing:0px;writing-mode:lr-tb;text-anchor:start;fill:#000000;fill-opacity:1;stroke:none;font-family:Bernard MT Condensed;-inkscape-font-specification:'Bernard MT Condensed,'"
     d="m 137.1651,58.276714 0,11.03125 c -1e-5,0.458336 0.27816,0.802086 0.83449,1.03125 0.4673,0.197918 0.70095,0.479168 0.70095,0.84375 0,0.760417 -0.0194,1.182292 -0.0584,1.265625 -0.039,0.08334 -0.20306,0.125 -0.49234,0.125 l -4.43942,0 c -0.22254,0 -0.36162,-0.08073 -0.41725,-0.242188 -0.0556,-0.161457 -0.0834,-0.559895 -0.0834,-1.195312 0,-0.291665 0.15021,-0.49479 0.45061,-0.609376 0.57857,-0.23958 0.86786,-0.510413 0.86786,-0.8125 l 0,-18.46875 c 0,-0.447894 -0.0445,-0.783831 -0.13351,-1.007812 -0.089,-0.223936 -0.28929,-0.408832 -0.60083,-0.554688 -0.27815,-0.124976 -0.46453,-0.260393 -0.5591,-0.406249 -0.0946,-0.14581 -0.14186,-0.421852 -0.14186,-0.828126 0,-0.729141 0.20584,-1.093724 0.61752,-1.09375 l 4.63969,0 5.60771,12.171876 0,-8.968751 c -1e-5,-0.499977 -0.27261,-0.854144 -0.81779,-1.0625 -0.32268,-0.135393 -0.5313,-0.289038 -0.62586,-0.460937 -0.0946,-0.171851 -0.14187,-0.507788 -0.14186,-1.007813 -1e-5,-0.312474 0.0334,-0.502579 0.10014,-0.570312 0.0668,-0.06768 0.19471,-0.101537 0.38386,-0.101563 l 4.60633,0 c 0.25589,0.03127 0.38384,0.375025 0.38386,1.03125 -2e-5,0.385441 -0.025,0.630232 -0.0751,0.734376 -0.0501,0.10419 -0.16413,0.192731 -0.34213,0.265625 -0.38944,0.145856 -0.63422,0.28648 -0.73435,0.421875 -0.10015,0.135439 -0.15022,0.322939 -0.1502,0.562499 l 0,22.203126 -2.83723,0 z" />
  <path
     inkscape:connector-curvature="0"
     id="path4236"
     style="font-size:33.07216644px;font-style:normal;font-variant:normal;font-weight:normal;font-stretch:normal;text-align:start;line-height:125%;letter-spacing:0px;word-spacing:0px;writing-mode:lr-tb;text-anchor:start;fill:#000000;fill-opacity:1;stroke:none;font-family:Bernard MT Condensed;-inkscape-font-specification:'Bernard MT Condensed,'"
     d="m 156.525,48.026713 c 0.0668,-0.05206 0.2559,-0.286433 0.56745,-0.703125 0.20026,-0.270807 0.4673,-0.406224 0.8011,-0.406249 0.0779,2.5e-5 0.38941,0.03649 0.93462,0.109374 0.11125,0.104192 0.19469,0.322942 0.25034,0.656251 l 0.90123,5.296875 c 0.0444,0.281269 0.0668,0.447936 0.0668,0.499999 -1e-5,0.197936 -0.0584,0.328145 -0.17524,0.390625 -0.11684,0.06252 -0.4256,0.09377 -0.92628,0.09375 -0.56745,1.9e-5 -0.93462,-0.06769 -1.10151,-0.203125 -0.1669,-0.135398 -0.484,-0.697898 -0.9513,-1.6875 -0.99027,-2.093727 -1.87481,-3.140602 -2.65365,-3.140626 -0.55633,2.4e-5 -0.83449,0.364607 -0.83447,1.093751 -2e-5,0.906271 0.84003,2.68752 2.52012,5.34375 1.92486,3.062513 3.17936,5.278657 3.76349,6.648437 0.58413,1.369801 0.8762,2.903654 0.87621,4.601563 -1e-5,2.010421 -0.50626,3.552086 -1.51875,4.625 -1.01251,1.072916 -2.15296,1.609374 -3.42136,1.609375 -0.80112,-10e-7 -1.57439,-0.213542 -2.31985,-0.640625 -0.2893,-0.166666 -0.51738,-0.249999 -0.68427,-0.25 -0.14465,10e-7 -0.26148,0.09896 -0.35049,0.296875 -0.17803,0.395834 -0.61196,0.593749 -1.30179,0.59375 -0.26704,-10e-7 -0.44784,-0.03906 -0.5424,-0.117187 -0.0946,-0.07812 -0.16412,-0.283855 -0.20863,-0.617188 l -0.83448,-5.203125 c -0.11126,-0.66666 -0.16689,-1.020827 -0.16689,-1.0625 0,-0.302076 0.29485,-0.453118 0.88455,-0.453125 0.8011,7e-6 1.27397,0.09897 1.41861,0.296875 0.14463,0.197923 0.35048,0.651047 0.61751,1.359375 0.97912,2.531253 1.96381,3.796877 2.95406,3.796875 0.36717,2e-6 0.66479,-0.124998 0.89289,-0.375 0.22808,-0.249998 0.34213,-0.562497 0.34214,-0.9375 -10e-6,-0.656246 -0.25314,-1.434891 -0.75938,-2.335938 -0.50626,-0.901035 -1.12655,-1.903638 -1.86089,-3.007812 -1.75797,-2.645823 -3.00134,-4.7578 -3.73011,-6.335938 -0.72879,-1.578109 -1.09317,-3.190086 -1.09317,-4.835938 0,-1.854144 0.43393,-3.33331 1.30178,-4.437499 0.86786,-1.104142 1.93042,-1.656224 3.18771,-1.656251 0.86786,2.7e-5 1.91929,0.364609 3.15433,1.09375 z" />
  <path
     inkscape:connector-curvature="0"
     id="path4238"
     style="font-size:33.07216644px;font-style:normal;font-variant:normal;font-weight:normal;font-stretch:normal;text-align:start;line-height:125%;letter-spacing:0px;word-spacing:0px;writing-mode:lr-tb;text-anchor:start;fill:#000000;fill-opacity:1;stroke:none;font-family:Bernard MT Condensed;-inkscape-font-specification:'Bernard MT Condensed,'"
     d="m 165.988,49.104838 -0.75103,0 c -0.24479,2.4e-5 -0.44506,0.15367 -0.60082,0.460938 -0.15578,0.307314 -0.31711,1.138043 -0.484,2.492187 -0.0779,0.593771 -0.20029,0.966166 -0.36718,1.117188 -0.1669,0.151061 -0.50069,0.226582 -1.00137,0.226563 -0.47843,1.9e-5 -0.78719,-0.05467 -0.92627,-0.164063 -0.13908,-0.109355 -0.20862,-0.325501 -0.20862,-0.648437 0,-0.187481 0.005,-0.37498 0.0167,-0.562501 l 0.20027,-3.640625 c 0.0222,-0.427058 0.10015,-0.705704 0.23366,-0.835937 0.13352,-0.130183 0.46731,-0.195287 1.00137,-0.195313 l 12.23347,0 c 0.35602,2.6e-5 0.57298,0.04169 0.65089,0.125 0.0778,0.08336 0.13907,0.385442 0.18358,0.90625 l 0.28373,3.21875 c 0.0222,0.250021 0.0334,0.50523 0.0334,0.765626 -1e-5,0.31252 -0.0418,0.552103 -0.12517,0.718749 -0.0835,0.166686 -0.34771,0.25002 -0.79275,0.250001 -0.56746,1.9e-5 -0.93185,-0.05207 -1.09317,-0.15625 -0.16135,-0.104148 -0.29207,-0.432273 -0.3922,-0.984375 -0.17804,-0.906229 -0.37274,-1.648416 -0.58414,-2.226563 -0.21141,-0.578102 -0.47288,-0.867164 -0.78441,-0.867188 l -0.50069,0 0,20.062501 c -1e-5,0.57292 0.26703,0.968752 0.8011,1.1875 0.22252,0.09375 0.36995,0.205731 0.44228,0.335938 0.0724,0.13021 0.10847,0.403646 0.10848,0.820312 -1e-5,0.53125 -0.0501,0.841146 -0.1502,0.929687 -0.10015,0.08854 -0.32824,0.132813 -0.68428,0.132813 l -7.34341,0 c -0.28929,0 -0.47566,-0.05209 -0.55911,-0.15625 -0.0834,-0.104166 -0.12517,-0.401041 -0.12517,-0.890625 0,-0.583332 0.17246,-0.937498 0.51738,-1.0625 0.33379,-0.124998 0.54519,-0.247393 0.63421,-0.367188 0.089,-0.119788 0.13351,-0.325517 0.13352,-0.617187 z" />
  <path
     inkscape:connector-curvature="0"
     id="path4240"
     style="font-size:33.07216644px;font-style:normal;font-variant:normal;font-weight:normal;font-stretch:normal;text-align:start;line-height:125%;letter-spacing:0px;word-spacing:0px;writing-mode:lr-tb;text-anchor:start;fill:#000000;fill-opacity:1;stroke:none;font-family:Bernard MT Condensed;-inkscape-font-specification:'Bernard MT Condensed,'"
     d="m 185.26447,61.479839 0,7.75 c -10e-6,0.364586 0.025,0.609377 0.0751,0.734375 0.05,0.125002 0.19193,0.25521 0.42559,0.390625 0.30041,0.177085 0.45061,0.47396 0.45062,0.890625 -1e-5,0.604167 -0.0584,0.976563 -0.17524,1.117187 -0.11684,0.140625 -0.33102,0.210938 -0.64255,0.210938 l -7.05969,0 c -0.40055,0 -0.60083,-0.270833 -0.60083,-0.8125 0,-0.520832 0.0166,-0.856769 0.0501,-1.007813 0.0334,-0.151039 0.14464,-0.25781 0.33379,-0.320312 0.61195,-0.229164 0.91793,-0.677081 0.91793,-1.34375 l 0,-18.296876 c 0,-0.677061 -0.26704,-1.088519 -0.80111,-1.234375 -0.26703,-0.08331 -0.43392,-0.166643 -0.50069,-0.249999 -0.0668,-0.08331 -0.10014,-0.328102 -0.10014,-0.734375 0,-0.812476 0.23365,-1.218725 0.70096,-1.218751 l 9.22934,0 c 1.83584,2.6e-5 3.4742,0.645859 4.91508,1.9375 1.44085,1.291689 2.16129,3.026062 2.1613,5.203125 -1e-5,3.093765 -1.68566,5.114597 -5.05695,6.0625 3.082,0.635429 4.62301,2.463552 4.62302,5.484376 l 0,3.71875 c -1e-5,0.312502 0.12794,0.546877 0.38386,0.703125 0.30039,0.187502 0.4506,0.473959 0.45062,0.859375 -2e-5,0.604167 -0.039,0.963541 -0.11683,1.078125 -0.0779,0.114583 -0.28373,0.171875 -0.61752,0.171875 l -4.4728,0 c -0.53407,0 -0.97357,-0.283854 -1.31847,-0.851563 -0.34494,-0.567707 -0.5174,-1.268227 -0.51739,-2.101562 l 0,-6.296875 c -1e-5,-1.229156 -0.66202,-1.84374 -1.98605,-1.84375 z m 0,-12.343751 0,10.531251 1.08482,0 c 1.1015,1.2e-5 1.65225,-1.036445 1.65226,-3.109375 l 0,-5.03125 c -1e-5,-0.874979 -0.17525,-1.492166 -0.52572,-1.851563 -0.35048,-0.359352 -0.89846,-0.539039 -1.64392,-0.539063 z" />
  <path
     inkscape:connector-curvature="0"
     id="path4242"
     style="font-size:33.07216644px;font-style:normal;font-variant:normal;font-weight:normal;font-stretch:normal;text-align:start;line-height:125%;letter-spacing:0px;word-spacing:0px;writing-mode:lr-tb;text-anchor:start;fill:#000000;fill-opacity:1;stroke:none;font-family:Bernard MT Condensed;-inkscape-font-specification:'Bernard MT Condensed,'"
     d="m 196.73021,47.354838 7.22658,0 c 0.24478,2.6e-5 0.40055,0.0495 0.46731,0.148438 0.0668,0.09898 0.10015,0.403671 0.10015,0.914062 -1e-5,0.510441 -0.16134,0.848982 -0.484,1.015625 -0.24479,0.125024 -0.4089,0.255232 -0.49234,0.390626 -0.0835,0.135439 -0.12518,0.395855 -0.12517,0.78125 l 0,17.5 c -1e-5,0.47917 0.14463,0.867191 0.43393,1.164063 0.28928,0.296878 0.65645,0.445314 1.10151,0.445311 0.41166,3e-6 0.76215,-0.166662 1.05145,-0.499999 0.28927,-0.33333 0.43391,-0.703121 0.43392,-1.109375 l 0,-17.5 c -10e-6,-0.302062 -0.0306,-0.512998 -0.0918,-0.632813 -0.0612,-0.119769 -0.2142,-0.268207 -0.45896,-0.445313 -0.37831,-0.270809 -0.56746,-0.687476 -0.56745,-1.249999 -1e-5,-0.437475 0.0528,-0.700496 0.15855,-0.789063 0.10569,-0.08852 0.25868,-0.132787 0.45896,-0.132813 l 3.60496,0 c 0.40054,2.6e-5 0.60081,0.187525 0.60082,0.562501 l 0,0.75 c -1e-5,0.333357 -0.0222,0.544294 -0.0668,0.632812 -0.0445,0.08856 -0.17247,0.169294 -0.38386,0.242188 -0.52295,0.166689 -0.78442,0.50523 -0.78441,1.015624 l 0,17.046875 c -1e-5,1.614587 -0.49513,2.893232 -1.48537,3.835939 -0.99026,0.942708 -2.36994,1.414061 -4.13902,1.414062 -1.9805,-10e-7 -3.49091,-0.5 -4.53121,-1.5 -1.04033,-0.999998 -1.56048,-2.442705 -1.56048,-4.328125 l 0,-16.468751 c 0,-0.437477 -0.24479,-0.760394 -0.73434,-0.96875 -0.24479,-0.104143 -0.39221,-0.200497 -0.44228,-0.289062 -0.0501,-0.08851 -0.0751,-0.278622 -0.0751,-0.570312 0,-0.604142 0.039,-0.98435 0.11682,-1.140625 0.0779,-0.156225 0.30041,-0.23435 0.66759,-0.234376 z" />
  <path
     inkscape:connector-curvature="0"
     id="path4244"
     style="font-size:33.07216644px;font-style:normal;font-variant:normal;font-weight:normal;font-stretch:normal;text-align:start;line-height:125%;letter-spacing:0px;word-spacing:0px;writing-mode:lr-tb;text-anchor:start;fill:#000000;fill-opacity:1;stroke:none;font-family:Bernard MT Condensed;-inkscape-font-specification:'Bernard MT Condensed,'"
     d="m 222.11506,46.932963 0.86785,0 c 0.20026,2.7e-5 0.35047,0.07034 0.45062,0.210938 0.10015,0.14065 0.17245,0.518254 0.21696,1.132813 l 0.38387,5.03125 c 0.0112,0.104185 0.0166,0.203144 0.0167,0.296875 -2e-5,0.364602 -0.0668,0.619809 -0.20028,0.765625 -0.13353,0.145851 -0.40056,0.218768 -0.8011,0.218749 -0.48957,1.9e-5 -0.82893,-0.119773 -1.01807,-0.359375 -0.18915,-0.239564 -0.37274,-0.807272 -0.55075,-1.703124 -0.45619,-2.270811 -1.10708,-3.406227 -1.95268,-3.40625 -0.70097,2.3e-5 -1.05145,0.817731 -1.05144,2.453124 l 0,17.578126 c -1e-5,1.166669 0.36716,1.750002 1.10151,1.75 0.93461,2e-6 1.45755,-0.973955 1.56882,-2.921875 0.0334,-0.562495 0.1502,-0.95312 0.35048,-1.171875 0.20026,-0.218744 0.61194,-0.328119 1.23503,-0.328125 0.4673,6e-6 0.79274,0.08074 0.97634,0.242187 0.18357,0.161464 0.27537,0.476568 0.27538,0.945312 -1e-5,1.489587 -0.47845,2.726565 -1.4353,3.710939 -0.95689,0.984375 -2.14741,1.476561 -3.57157,1.476562 -1.37969,-10e-7 -2.59246,-0.411458 -3.63833,-1.234375 -1.04589,-0.822915 -1.94991,-2.242184 -2.71206,-4.257813 -0.76216,-2.015617 -1.14324,-4.596344 -1.14324,-7.742188 0,-2.968734 0.31988,-5.341127 0.95965,-7.117187 0.63976,-1.77602 1.45756,-3.148415 2.45337,-4.117188 0.99581,-0.968724 2.15574,-1.453098 3.47978,-1.453125 0.80109,2.7e-5 1.49649,0.203151 2.08619,0.609375 0.22253,0.145859 0.38942,0.218775 0.5007,0.218751 0.1335,2.4e-5 0.32265,-0.145809 0.56744,-0.437501 0.21139,-0.260391 0.40611,-0.390598 0.58414,-0.390625 z" />
  <path
     inkscape:connector-curvature="0"
     id="path4246"
     style="font-size:33.07216644px;font-style:normal;font-variant:normal;font-weight:normal;font-stretch:normal;text-align:start;line-height:125%;letter-spacing:0px;word-spacing:0px;writing-mode:lr-tb;text-anchor:start;fill:#000000;fill-opacity:1;stroke:none;font-family:Bernard MT Condensed;-inkscape-font-specification:'Bernard MT Condensed,'"
     d="m 229.34164,49.104838 -0.75103,0 c -0.24479,2.4e-5 -0.44506,0.15367 -0.60083,0.460938 -0.15577,0.307314 -0.3171,1.138043 -0.484,2.492187 -0.0779,0.593771 -0.20027,0.966166 -0.36716,1.117188 -0.16691,0.151061 -0.5007,0.226582 -1.00139,0.226563 -0.47843,1.9e-5 -0.78719,-0.05467 -0.92627,-0.164063 -0.13908,-0.109355 -0.20862,-0.325501 -0.20861,-0.648437 -1e-5,-0.187481 0.005,-0.37498 0.0166,-0.562501 l 0.20028,-3.640625 c 0.0222,-0.427058 0.10015,-0.705704 0.23366,-0.835937 0.13351,-0.130183 0.4673,-0.195287 1.00137,-0.195313 l 12.23346,0 c 0.35603,2.6e-5 0.57299,0.04169 0.65089,0.125 0.0779,0.08336 0.13907,0.385442 0.18359,0.90625 l 0.28372,3.21875 c 0.0222,0.250021 0.0334,0.50523 0.0334,0.765626 -2e-5,0.31252 -0.0417,0.552103 -0.12518,0.718749 -0.0835,0.166686 -0.34771,0.25002 -0.79275,0.250001 -0.56745,1.9e-5 -0.93185,-0.05207 -1.09317,-0.15625 -0.16134,-0.104148 -0.29208,-0.432273 -0.3922,-0.984375 -0.17803,-0.906229 -0.37275,-1.648416 -0.58414,-2.226563 -0.21141,-0.578102 -0.47288,-0.867164 -0.78441,-0.867188 l -0.50068,0 0,20.062501 c -1e-5,0.57292 0.26702,0.968752 0.8011,1.1875 0.22251,0.09375 0.36993,0.205731 0.44227,0.335938 0.0723,0.13021 0.10847,0.403646 0.10849,0.820312 -2e-5,0.53125 -0.0501,0.841146 -0.15021,0.929687 -0.10015,0.08854 -0.32825,0.132813 -0.68428,0.132813 l -7.34341,0 c -0.28929,0 -0.47565,-0.05209 -0.5591,-0.15625 -0.0834,-0.104166 -0.12518,-0.401041 -0.12518,-0.890625 0,-0.583332 0.17246,-0.937498 0.51739,-1.0625 0.33378,-0.124998 0.54518,-0.247393 0.6342,-0.367188 0.089,-0.119788 0.13351,-0.325517 0.13351,-0.617187 z" />
  <path
     inkscape:connector-curvature="0"
     id="path4248"
     style="font-size:33.07216644px;font-style:normal;font-variant:normal;font-weight:normal;font-stretch:normal;text-align:start;line-height:125%;letter-spacing:0px;word-spacing:0px;writing-mode:lr-tb;text-anchor:start;fill:#000000;fill-opacity:1;stroke:none;font-family:Bernard MT Condensed;-inkscape-font-specification:'Bernard MT Condensed,'"
     d="m 240.90751,48.667339 0,-0.828126 c 0,-0.322891 0.18359,-0.484349 0.55076,-0.484375 l 7.99431,0 c 0.3004,2.6e-5 0.49511,0.03649 0.58413,0.109376 0.089,0.07295 0.13351,0.291691 0.13352,0.656249 -1e-5,0.552108 -0.0306,0.895857 -0.0918,1.031251 -0.0612,0.13544 -0.1975,0.218773 -0.40889,0.25 -0.68985,0.114606 -1.03477,0.526064 -1.03476,1.234375 l 0,18.78125 c -1e-5,0.395836 0.25034,0.708335 0.75103,0.9375 0.32266,0.145835 0.51737,0.276043 0.58414,0.390625 0.0668,0.114585 0.10014,0.312502 0.10014,0.59375 l 0,0.609375 c -1e-5,0.333334 -0.0334,0.520834 -0.10014,0.5625 -0.0668,0.04166 -0.23923,0.0625 -0.51738,0.0625 l -8.14451,0 c -0.31154,0 -0.46731,-0.114583 -0.46731,-0.34375 0,-0.749999 0.0278,-1.208332 0.0834,-1.375 0.0556,-0.166665 0.25035,-0.296873 0.58414,-0.390625 0.60082,-0.156248 0.90123,-0.453122 0.90123,-0.890625 l 0,-18.546875 c 0,-0.437479 -0.0556,-0.768207 -0.16689,-0.992188 -0.11126,-0.223936 -0.35605,-0.408831 -0.73434,-0.554687 -0.27816,-0.114561 -0.44784,-0.216123 -0.50904,-0.304688 -0.0612,-0.08852 -0.0918,-0.257789 -0.0918,-0.507812 z" />
  <path
     inkscape:connector-curvature="0"
     id="path4250"
     style="font-size:33.07216644px;font-style:normal;font-variant:normal;font-weight:normal;font-stretch:normal;text-align:start;line-height:125%;letter-spacing:0px;word-spacing:0px;writing-mode:lr-tb;text-anchor:start;fill:#000000;fill-opacity:1;stroke:none;font-family:Bernard MT Condensed;-inkscape-font-specification:'Bernard MT Condensed,'"
     d="m 259.69998,46.932963 c 1.63558,2.7e-5 3.05141,0.513047 4.2475,1.539063 1.19608,1.026064 2.17241,2.487 2.92903,4.382813 0.75658,1.895851 1.13487,4.32814 1.13489,7.296875 -2e-5,3.562508 -0.73715,6.570318 -2.21137,9.023438 -1.47426,2.453125 -3.55212,3.679686 -6.23357,3.679687 -2.54794,-10e-7 -4.55626,-1.197915 -6.02493,-3.593751 -1.46868,-2.395827 -2.20303,-5.489573 -2.20302,-9.28125 -1e-5,-3.885399 0.75381,-7.03123 2.26144,-9.437499 1.50761,-2.406226 3.54096,-3.609349 6.10003,-3.609376 z m 1.31849,3.703126 c -10e-6,-1.302061 -0.45063,-1.953101 -1.35186,-1.953126 -0.37831,2.5e-5 -0.70097,0.161483 -0.968,0.484375 -0.26704,0.32294 -0.40056,0.718774 -0.40055,1.187501 l 0,18.859375 c -1e-5,0.635419 0.13351,1.117189 0.40055,1.445313 0.26703,0.328126 0.58413,0.492189 0.95131,0.492187 0.41167,2e-6 0.74268,-0.182291 0.99302,-0.546875 0.25034,-0.364581 0.37552,-0.77083 0.37553,-1.21875 z" />
  <path
     inkscape:connector-curvature="0"
     id="path4252"
     style="font-size:33.07216644px;font-style:normal;font-variant:normal;font-weight:normal;font-stretch:normal;text-align:start;line-height:125%;letter-spacing:0px;word-spacing:0px;writing-mode:lr-tb;text-anchor:start;fill:#000000;fill-opacity:1;stroke:none;font-family:Bernard MT Condensed;-inkscape-font-specification:'Bernard MT Condensed,'"
     d="m 273.55234,58.276714 0,11.03125 c -1e-5,0.458336 0.27815,0.802086 0.83447,1.03125 0.46731,0.197918 0.70097,0.479168 0.70097,0.84375 0,0.760417 -0.0194,1.182292 -0.0584,1.265625 -0.039,0.08334 -0.20307,0.125 -0.49234,0.125 l -4.43944,0 c -0.22252,0 -0.3616,-0.08073 -0.41723,-0.242188 -0.0556,-0.161457 -0.0834,-0.559895 -0.0834,-1.195312 0,-0.291665 0.1502,-0.49479 0.45062,-0.609376 0.57857,-0.23958 0.86786,-0.510413 0.86786,-0.8125 l 0,-18.46875 c 0,-0.447894 -0.0446,-0.783831 -0.13352,-1.007812 -0.089,-0.223936 -0.28929,-0.408832 -0.60082,-0.554688 -0.27817,-0.124976 -0.46453,-0.260393 -0.55911,-0.406249 -0.0946,-0.14581 -0.14185,-0.421852 -0.14185,-0.828126 0,-0.729141 0.20583,-1.093724 0.6175,-1.09375 l 4.63971,0 5.60769,12.171876 0,-8.968751 c -1e-5,-0.499977 -0.2726,-0.854144 -0.81778,-1.0625 -0.32268,-0.135393 -0.53129,-0.289038 -0.62586,-0.460937 -0.0946,-0.171851 -0.14187,-0.507788 -0.14186,-1.007813 -10e-6,-0.312474 0.0334,-0.502579 0.10015,-0.570312 0.0668,-0.06768 0.1947,-0.101537 0.38386,-0.101563 l 4.60632,0 c 0.25589,0.03127 0.38384,0.375025 0.38386,1.03125 -2e-5,0.385441 -0.025,0.630232 -0.0751,0.734376 -0.0501,0.10419 -0.16413,0.192731 -0.34214,0.265625 -0.38944,0.145856 -0.63422,0.28648 -0.73434,0.421875 -0.10015,0.135439 -0.15022,0.322939 -0.1502,0.562499 l 0,22.203126 -2.83723,0 z" />
</svg>
