<svg xmlns="http://www.w3.org/2000/svg"
    viewBox="0 0 24 24"
    class="fill-current text-gray-700 hover:text-blue-500 dark:text-gray-200 dark:hover:text-blue-400 h-6 w-6">
    <path
      d="M23.499 6.203a3.008 3.008 0 0 0-2.089-2.089c-1.87-.501-9.4-.501-9.4-.501s-7.509-.01-9.399.501a3.008 3.008 0 0 0-2.088 2.09A31.258 31.26 0 0 0 0 12.01a31.258 31.26 0 0 0 .523 5.785 3.008 3.008 0 0 0 2.088 2.089c1.869.502 9.4.502 9.4.502s7.508 0 9.399-.502a3.008 3.008 0 0 0 2.089-2.09 31.258 31.26 0 0 0 .5-5.784 31.258 31.26 0 0 0-.5-5.808zm-13.891 9.4V8.407l6.266 3.604z">
    </path>
</svg>
